<?xml version="1.0" encoding="UTF-8"?>
<svg width="140px" height="70px" viewBox="0 0 140 70" version="1.1" xmlns="http://www.w3.org/2000/svg" xmlns:xlink="http://www.w3.org/1999/xlink">
    <!-- Generator: Sketch 56.3 (81716) - https://sketch.com -->
    <title>blog-masonry</title>
    <desc>Created with Sketch.</desc>
    <g id="Dashboard" stroke="none" stroke-width="1" fill="none" fill-rule="evenodd">
        <g id="Blog-Icons" transform="translate(-623.000000, -389.000000)">
            <g id="Classic-Copy-2" transform="translate(623.000000, 389.000000)">
                <g id="blog-masonry">
                    <rect id="Rectangle" stroke="#A3AFB7" stroke-width="2" x="1" y="1" width="138" height="68"></rect>
                    <g id="Group" transform="translate(37.000000, 6.000000)" fill="#A3AFB7">
                        <rect id="Rectangle" x="0" y="0" width="19" height="19"></rect>
                        <rect id="Rectangle-Copy-3" x="0" y="21" width="10" height="1"></rect>
                        <rect id="Rectangle-Copy-5" x="0" y="24" width="19" height="1"></rect>
                        <rect id="Rectangle-Copy-6" x="0" y="27" width="19" height="1"></rect>
                        <rect id="Rectangle-Copy-7" x="0" y="29" width="19" height="1"></rect>
                        <rect id="Rectangle-Copy-8" x="0" y="31" width="19" height="1"></rect>
                        <rect id="Rectangle-Copy-4" x="0" y="34" width="10" height="1"></rect>
                        <rect id="Rectangle-Copy-14" x="24" y="24" width="10" height="1"></rect>
                        <rect id="Rectangle-Copy-13" x="24" y="27" width="19" height="1"></rect>
                        <rect id="Rectangle-Copy-12" x="24" y="30" width="19" height="1"></rect>
                        <rect id="Rectangle-Copy-11" x="24" y="32" width="19" height="1"></rect>
                        <rect id="Rectangle-Copy-10" x="24" y="34" width="19" height="1"></rect>
                        <rect id="Rectangle-Copy-9" x="24" y="37" width="10" height="1"></rect>
                        <rect id="Rectangle-Copy-20" x="48" y="19" width="10" height="1"></rect>
                        <rect id="Rectangle-Copy-19" x="48" y="22" width="19" height="1"></rect>
                        <rect id="Rectangle-Copy-18" x="48" y="25" width="19" height="1"></rect>
                        <rect id="Rectangle-Copy-17" x="48" y="27" width="19" height="1"></rect>
                        <rect id="Rectangle-Copy-16" x="48" y="29" width="19" height="1"></rect>
                        <rect id="Rectangle-Copy-15" x="48" y="32" width="10" height="1"></rect>
                        <rect id="Rectangle-Copy" x="24" y="0" width="19" height="22"></rect>
                        <rect id="Rectangle-Copy-2" x="48" y="0" width="19" height="17"></rect>
                    </g>
                    <g id="Group-Copy" transform="translate(37.000000, 43.000000)" fill="#A3AFB7">
                        <rect id="Rectangle" x="0" y="2" width="19" height="19"></rect>
                        <rect id="Rectangle-Copy-3" x="0" y="23" width="10" height="1"></rect>
                        <rect id="Rectangle-Copy-5" x="0" y="26" width="19" height="1"></rect>
                        <rect id="Rectangle-Copy-13" x="24" y="26" width="19" height="1"></rect>
                        <rect id="Rectangle-Copy-20" x="48" y="20" width="10" height="1"></rect>
                        <rect id="Rectangle-Copy-19" x="48" y="26" width="19" height="1"></rect>
                        <rect id="Rectangle-Copy" x="24" y="5" width="19" height="19"></rect>
                        <rect id="Rectangle-Copy-2" x="48" y="0" width="19" height="18"></rect>
                    </g>
                    <rect id="Rectangle-Copy-5" fill="#A3AFB7" x="85" y="66" width="19" height="1"></rect>
                </g>
            </g>
        </g>
    </g>
</svg>