<?xml version="1.0" encoding="UTF-8"?>
<svg width="140px" height="70px" viewBox="0 0 140 70" version="1.1" xmlns="http://www.w3.org/2000/svg" xmlns:xlink="http://www.w3.org/1999/xlink">
    <!-- Generator: Sketch 56.3 (81716) - https://sketch.com -->
    <title>blog-horizontal</title>
    <desc>Created with Sketch.</desc>
    <g id="Dashboard" stroke="none" stroke-width="1" fill="none" fill-rule="evenodd">
        <g id="Blog-Icons" transform="translate(-773.000000, -389.000000)">
            <g id="Classic-Copy-3" transform="translate(773.000000, 389.000000)">
                <g id="blog-horizontal">
                    <rect id="Rectangle" stroke="#A3AFB7" stroke-width="2" x="1" y="1" width="138" height="68"></rect>
                    <g id="Group" transform="translate(37.000000, 7.000000)" fill="#A3AFB7">
                        <rect id="Rectangle" x="0" y="0" width="11" height="11"></rect>
                        <rect id="Rectangle-Copy-3" x="13" y="0" width="10" height="1"></rect>
                        <rect id="Rectangle-Copy-5" x="13" y="3" width="19" height="1"></rect>
                        <rect id="Rectangle-Copy-6" x="13" y="5" width="19" height="1"></rect>
                        <rect id="Rectangle-Copy-7" x="13" y="7" width="19" height="1"></rect>
                        <rect id="Rectangle-Copy-4" x="13" y="10" width="10" height="1"></rect>
                    </g>
                    <g id="Group-Copy-3" transform="translate(72.000000, 7.000000)" fill="#A3AFB7">
                        <rect id="Rectangle" x="0" y="0" width="11" height="11"></rect>
                        <rect id="Rectangle-Copy-3" x="13" y="0" width="10" height="1"></rect>
                        <rect id="Rectangle-Copy-5" x="13" y="3" width="19" height="1"></rect>
                        <rect id="Rectangle-Copy-6" x="13" y="5" width="19" height="1"></rect>
                        <rect id="Rectangle-Copy-7" x="13" y="7" width="19" height="1"></rect>
                        <rect id="Rectangle-Copy-4" x="13" y="10" width="10" height="1"></rect>
                    </g>
                    <g id="Group-Copy-5" transform="translate(37.000000, 22.000000)" fill="#A3AFB7">
                        <rect id="Rectangle" x="0" y="0" width="11" height="11"></rect>
                        <rect id="Rectangle-Copy-3" x="13" y="0" width="10" height="1"></rect>
                        <rect id="Rectangle-Copy-5" x="13" y="3" width="19" height="1"></rect>
                        <rect id="Rectangle-Copy-6" x="13" y="5" width="19" height="1"></rect>
                        <rect id="Rectangle-Copy-7" x="13" y="7" width="19" height="1"></rect>
                        <rect id="Rectangle-Copy-4" x="13" y="10" width="10" height="1"></rect>
                    </g>
                    <g id="Group-Copy-4" transform="translate(72.000000, 22.000000)" fill="#A3AFB7">
                        <rect id="Rectangle" x="0" y="0" width="11" height="11"></rect>
                        <rect id="Rectangle-Copy-3" x="13" y="0" width="10" height="1"></rect>
                        <rect id="Rectangle-Copy-5" x="13" y="3" width="19" height="1"></rect>
                        <rect id="Rectangle-Copy-6" x="13" y="5" width="19" height="1"></rect>
                        <rect id="Rectangle-Copy-7" x="13" y="7" width="19" height="1"></rect>
                        <rect id="Rectangle-Copy-4" x="13" y="10" width="10" height="1"></rect>
                    </g>
                    <g id="Group-Copy-7" transform="translate(37.000000, 37.000000)" fill="#A3AFB7">
                        <rect id="Rectangle" x="0" y="0" width="11" height="11"></rect>
                        <rect id="Rectangle-Copy-3" x="13" y="0" width="10" height="1"></rect>
                        <rect id="Rectangle-Copy-5" x="13" y="3" width="19" height="1"></rect>
                        <rect id="Rectangle-Copy-6" x="13" y="5" width="19" height="1"></rect>
                        <rect id="Rectangle-Copy-7" x="13" y="7" width="19" height="1"></rect>
                        <rect id="Rectangle-Copy-4" x="13" y="10" width="10" height="1"></rect>
                    </g>
                    <g id="Group-Copy-6" transform="translate(72.000000, 37.000000)" fill="#A3AFB7">
                        <rect id="Rectangle" x="0" y="0" width="11" height="11"></rect>
                        <rect id="Rectangle-Copy-3" x="13" y="0" width="10" height="1"></rect>
                        <rect id="Rectangle-Copy-5" x="13" y="3" width="19" height="1"></rect>
                        <rect id="Rectangle-Copy-6" x="13" y="5" width="19" height="1"></rect>
                        <rect id="Rectangle-Copy-7" x="13" y="7" width="19" height="1"></rect>
                        <rect id="Rectangle-Copy-4" x="13" y="10" width="10" height="1"></rect>
                    </g>
                    <g id="Group-Copy-9" transform="translate(37.000000, 52.000000)" fill="#A3AFB7">
                        <rect id="Rectangle" x="0" y="0" width="11" height="11"></rect>
                        <rect id="Rectangle-Copy-3" x="13" y="0" width="10" height="1"></rect>
                        <rect id="Rectangle-Copy-5" x="13" y="3" width="19" height="1"></rect>
                        <rect id="Rectangle-Copy-6" x="13" y="5" width="19" height="1"></rect>
                        <rect id="Rectangle-Copy-7" x="13" y="7" width="19" height="1"></rect>
                        <rect id="Rectangle-Copy-4" x="13" y="10" width="10" height="1"></rect>
                    </g>
                    <g id="Group-Copy-8" transform="translate(72.000000, 52.000000)" fill="#A3AFB7">
                        <rect id="Rectangle" x="0" y="0" width="11" height="11"></rect>
                        <rect id="Rectangle-Copy-3" x="13" y="0" width="10" height="1"></rect>
                        <rect id="Rectangle-Copy-5" x="13" y="3" width="19" height="1"></rect>
                        <rect id="Rectangle-Copy-6" x="13" y="5" width="19" height="1"></rect>
                        <rect id="Rectangle-Copy-7" x="13" y="7" width="19" height="1"></rect>
                        <rect id="Rectangle-Copy-4" x="13" y="10" width="10" height="1"></rect>
                    </g>
                </g>
            </g>
        </g>
    </g>
</svg>