<?xml version="1.0" encoding="utf-8"?>
<!-- Generator: Adobe Illustrator 25.2.1, SVG Export Plug-In . SVG Version: 6.00 Build 0)  -->
<svg version="1.1" id="Layer_1" xmlns="http://www.w3.org/2000/svg" xmlns:xlink="http://www.w3.org/1999/xlink" x="0px" y="0px"
	 width="140px" height="70px" viewBox="0 0 140 70" style="enable-background:new 0 0 140 70;" xml:space="preserve">
<style type="text/css">
	.st0{fill:none;stroke:#B0B8CA;stroke-width:2;}
	.st1{fill:none;stroke:#B0B8CA;}
	.st2{fill-rule:evenodd;clip-rule:evenodd;fill:#B0B8CA;}
</style>
<desc>Created with Sketch.</desc>
<rect id="Rectangle" x="1" y="1" class="st0" width="138" height="68"/>
<rect id="Rectangle-Copy" x="0.5" y="0.5" class="st1" width="139" height="19.1"/>
<rect id="Rectangle_1_" x="62" y="5" class="st2" width="16" height="5"/>
<g>
	<rect id="Rectangle_2_" x="84.5" y="13.9" class="st2" width="10" height="1"/>
	<rect id="Rectangle-Copy-2" x="71.5" y="13.9" class="st2" width="10" height="1"/>
	<rect id="Rectangle-Copy-3" x="58.5" y="13.9" class="st2" width="10" height="1"/>
	<rect id="Rectangle-Copy-4" x="45.5" y="13.9" class="st2" width="10" height="1"/>
</g>
<rect id="Rectangle-Copy-14" x="125.6" y="6.5" class="st1" width="7" height="2"/>
<rect id="Rectangle-Copy-44" x="7" y="6.5" class="st2" width="2" height="2"/>
<rect id="Rectangle-Copy-45" x="11" y="6.5" class="st2" width="2" height="2"/>
<rect id="Rectangle-Copy-46" x="15" y="6.5" class="st2" width="2" height="2"/>
<rect id="Rectangle-Copy-47" x="19" y="6.5" class="st2" width="2" height="2"/>
<rect id="Rectangle-Copy-38" x="112.1" y="7" class="st2" width="10" height="1"/>
<rect id="Rectangle_3_" x="7" y="13.9" class="st2" width="2" height="1"/>
<rect id="Rectangle_4_" x="131" y="13.9" class="st2" width="2" height="1"/>
<rect id="Rectangle_5_" x="127" y="13.9" class="st2" width="2" height="1"/>
</svg>
