<?xml version="1.0" encoding="UTF-8"?>
<svg width="140px" height="70px" viewBox="0 0 140 70" version="1.1" xmlns="http://www.w3.org/2000/svg" xmlns:xlink="http://www.w3.org/1999/xlink">
    <title>header-hamburger-creative</title>
    <g id="Dashboard-v.2" stroke="none" stroke-width="1" fill="none" fill-rule="evenodd">
        <g id="Header" transform="translate(-1070.000000, -453.000000)">
            <g id="header-hamburger-creative" transform="translate(1070.000000, 453.000000)">
                <rect id="Rectangle-Copy-17" stroke="#B0B8CA" stroke-width="2" x="1" y="1" width="138" height="68"></rect>
                <rect id="Rectangle" fill="#B0B8CA" x="8" y="7" width="16" height="4"></rect>
                <rect id="Rectangle-Copy-33" fill="#B0B8CA" x="37" y="20" width="32" height="2"></rect>
                <rect id="Rectangle-Copy-34" fill="#B0B8CA" x="37" y="24" width="26" height="2"></rect>
                <rect id="Rectangle-Copy-35" fill="#B0B8CA" x="37" y="28" width="30" height="2"></rect>
                <rect id="Rectangle-Copy-36" fill="#B0B8CA" x="37" y="32" width="32" height="2"></rect>
                <rect id="Rectangle-Copy-37" fill="#B0B8CA" x="37" y="36" width="17" height="2"></rect>
                <rect id="Rectangle-Copy-49" fill="#B0B8CA" x="37" y="40" width="28" height="2"></rect>
                <rect id="Rectangle-Copy-50" fill="#B0B8CA" x="37" y="44" width="22" height="2"></rect>
                <rect id="Rectangle-Copy-51" fill="#B0B8CA" x="37" y="48" width="25" height="2"></rect>
                <rect id="Rectangle-Copy-38" fill="#B0B8CA" x="86" y="31" width="10" height="1"></rect>
                <rect id="Rectangle-Copy-39" fill="#B0B8CA" x="86" y="34" width="14" height="1"></rect>
                <rect id="Rectangle-Copy-40" fill="#B0B8CA" x="86" y="37" width="14" height="1"></rect>
                <rect id="Rectangle-Copy-44" fill="#B0B8CA" x="86" y="42" width="2" height="2"></rect>
                <rect id="Rectangle-Copy-45" fill="#B0B8CA" x="90" y="42" width="2" height="2"></rect>
                <rect id="Rectangle-Copy-46" fill="#B0B8CA" x="94" y="42" width="2" height="2"></rect>
                <rect id="Rectangle-Copy-47" fill="#B0B8CA" x="98" y="42" width="2" height="2"></rect>
                <rect id="Rectangle-Copy-48" fill="#B0B8CA" x="130" y="7" width="2" height="2"></rect>
                <rect id="Rectangle-Copy-43" fill="#B0B8CA" x="86" y="20" width="10" height="1"></rect>
                <rect id="Rectangle-Copy-42" fill="#B0B8CA" x="86" y="23" width="14" height="1"></rect>
                <rect id="Rectangle-Copy-41" fill="#B0B8CA" x="86" y="26" width="14" height="1"></rect>
                <rect id="Rectangle-Copy-14" stroke="#B0B8CA" transform="translate(90.000000, 48.500000) rotate(-270.000000) translate(-90.000000, -48.500000) " x="89" y="45" width="2" height="7"></rect>
            </g>
        </g>
    </g>
</svg>