<?xml version="1.0" encoding="UTF-8"?>
<svg width="138px" height="138px" viewBox="0 0 138 138" version="1.1" xmlns="http://www.w3.org/2000/svg" xmlns:xlink="http://www.w3.org/1999/xlink">
    <title>icon-knowledgebase</title>
    <defs>
        <circle id="path-1" cx="44" cy="132" r="3"></circle>
        <circle id="path-2" cx="90" cy="4" r="3"></circle>
        <circle id="path-3" cx="70.5" cy="3" r="3"></circle>
        <circle id="path-4" cx="10.5" cy="3" r="3"></circle>
        <circle id="path-5" cx="3" cy="62" r="3"></circle>
        <circle id="path-6" cx="78" cy="62" r="3"></circle>
    </defs>
    <g id="Dashboard-v.2" stroke="none" stroke-width="1" fill="none" fill-rule="evenodd">
        <g id="Dashboard" transform="translate(-499.000000, -568.000000)">
            <g id="Group-6" transform="translate(431.000000, 533.000000)">
                <g id="icon-knowledgebase" transform="translate(69.000000, 36.000000)">
                    <path d="M68,136 C105.555363,136 136,105.555363 136,68 C136,30.444637 105.555363,0 68,0 C30.444637,0 0,30.444637 0,68 C0,105.555363 30.444637,136 68,136 Z" id="Oval" stroke="#2E3546" stroke-dasharray="2,2"></path>
                    <g id="nucleus-copy-29" transform="translate(44.000000, 132.000000) rotate(-90.000000) translate(-44.000000, -132.000000) " stroke="#151515">
                        <circle stroke-width="1.5" stroke-linejoin="square" fill="#D1345B" fill-rule="evenodd" cx="44" cy="132" r="2.25"></circle>
                        <use stroke-width="1" xlink:href="#path-1"></use>
                    </g>
                    <g id="nucleus-copy-29" transform="translate(90.000000, 4.000000) rotate(-90.000000) translate(-90.000000, -4.000000) " stroke="#151515">
                        <circle stroke-width="1.5" stroke-linejoin="square" fill="#34D1BF" fill-rule="evenodd" cx="90" cy="4" r="2.25"></circle>
                        <use stroke-width="1" xlink:href="#path-2"></use>
                    </g>
                    <g id="reading-book" transform="translate(27.000000, 31.000000)">
                        <path d="M40.4359291,67.3925236 C50.7723747,59.6535825 63.3268223,57.9457247 78.0992717,62.2689502 C78.0576316,47.5307927 78.0576316,31.6959075 78.0992717,14.7642947 C74.7123167,13.520984 72.3179175,12.7392786 70.9160742,12.4191786" id="Path-337" stroke="#6E778A" stroke-linecap="round" stroke-linejoin="round"></path>
                        <path d="M40.3638298,67.4182425 C44.9475037,56.7638798 54.9889981,50.5255143 70.4883127,48.7031461 C70.4674927,36.9992071 70.4674927,21.944462 70.4883127,3.53891099 C58.2769622,4.37600013 48.2252721,9.95179761 40.3332422,20.2663034" id="Path-338" stroke="#6E778A" stroke-linecap="round" stroke-linejoin="round"></path>
                        <path d="M2.90072829,67.3925236 C13.0680984,59.6535825 25.5380081,57.9457247 40.3104576,62.2689502 C40.2688174,47.5307927 40.2688174,31.6959075 40.3104576,14.7642947 C36.9235026,13.520984 34.5291034,12.7392786 33.12726,12.4191786" id="Path-337" stroke="#6E778A" stroke-linecap="round" stroke-linejoin="round" transform="translate(21.605593, 39.905851) scale(-1, 1) translate(-21.605593, -39.905851) "></path>
                        <path d="M10.5132478,67.4182425 C14.9361694,56.7638798 24.8972875,50.5255143 40.3966022,48.7031461 C40.3757822,36.9992071 40.3757822,21.944462 40.3966022,3.53891099 C28.3653554,4.37600013 18.4037171,9.95179761 10.5116873,20.2663034" id="Path-338" stroke="#6E778A" stroke-linecap="round" stroke-linejoin="round" transform="translate(25.454145, 35.478577) scale(-1, 1) translate(-25.454145, -35.478577) "></path>
                        <line x1="40.3613705" y1="67.4278954" x2="40.3613705" y2="19.8244894" id="Path-339" stroke="#6E778A" stroke-linecap="round" stroke-linejoin="round"></line>
                        <g id="nucleus-copy-25" transform="translate(70.500000, 3.000000) rotate(-90.000000) translate(-70.500000, -3.000000) " stroke="#151515">
                            <circle stroke-width="1.5" stroke-linejoin="square" fill="#D1345B" fill-rule="evenodd" cx="70.5" cy="3" r="2.25"></circle>
                            <use stroke-width="1" xlink:href="#path-3"></use>
                        </g>
                        <g id="nucleus-copy-28" transform="translate(10.500000, 3.000000) rotate(-90.000000) translate(-10.500000, -3.000000) " stroke="#151515">
                            <circle stroke-width="1.5" stroke-linejoin="square" fill="#532DF5" fill-rule="evenodd" cx="10.5" cy="3" r="2.25"></circle>
                            <use stroke-width="1" xlink:href="#path-4"></use>
                        </g>
                        <g id="nucleus-copy-29" transform="translate(3.000000, 62.000000) rotate(-90.000000) translate(-3.000000, -62.000000) " stroke="#151515">
                            <circle stroke-width="1.5" stroke-linejoin="square" fill="#34D1BF" fill-rule="evenodd" cx="3" cy="62" r="2.25"></circle>
                            <use stroke-width="1" xlink:href="#path-5"></use>
                        </g>
                        <g id="nucleus-copy-30" transform="translate(78.000000, 62.000000) rotate(-90.000000) translate(-78.000000, -62.000000) " stroke="#151515">
                            <circle stroke-width="1.5" stroke-linejoin="square" fill="#532DF5" fill-rule="evenodd" cx="78" cy="62" r="2.25"></circle>
                            <use stroke-width="1" xlink:href="#path-6"></use>
                        </g>
                    </g>
                </g>
            </g>
        </g>
    </g>
</svg>