<?xml version="1.0" encoding="UTF-8"?>
<svg width="140px" height="70px" viewBox="0 0 140 70" version="1.1" xmlns="http://www.w3.org/2000/svg" xmlns:xlink="http://www.w3.org/1999/xlink">
    <!-- Generator: Sketch 56.3 (81716) - https://sketch.com -->
    <title>portfolio-masonry</title>
    <desc>Created with Sketch.</desc>
    <g id="Dashboard-v.2" stroke="none" stroke-width="1" fill="none" fill-rule="evenodd">
        <g id="Portfolio" transform="translate(-580.000000, -357.000000)">
            <g id="Classic-Copy-2" transform="translate(580.000000, 357.000000)">
                <g id="portfolio-masonry">
                    <rect id="Rectangle" stroke="#B0B8CA" stroke-width="2" x="1" y="1" width="138" height="68"></rect>
                    <rect id="Rectangle" fill="#B0B8CA" x="37" y="6" width="19" height="19"></rect>
                    <rect id="Rectangle-Copy-3" fill="#B0B8CA" x="37" y="27" width="10" height="1"></rect>
                    <rect id="Rectangle-Copy-14" fill="#B0B8CA" x="61" y="30" width="10" height="1"></rect>
                    <rect id="Rectangle-Copy-22" fill="#B0B8CA" x="61" y="56" width="10" height="1"></rect>
                    <rect id="Rectangle-Copy-20" fill="#B0B8CA" x="85" y="25" width="10" height="1"></rect>
                    <rect id="Rectangle-Copy" fill="#B0B8CA" x="61" y="6" width="19" height="22"></rect>
                    <rect id="Rectangle-Copy-2" fill="#B0B8CA" x="85" y="6" width="19" height="17"></rect>
                    <g id="Group-Copy" transform="translate(37.000000, 30.000000)" fill="#B0B8CA">
                        <rect id="Rectangle" x="0" y="2" width="19" height="19"></rect>
                        <rect id="Rectangle-Copy-3" x="0" y="23" width="10" height="1"></rect>
                        <rect id="Rectangle-Copy-21" x="0" y="28" width="19" height="12"></rect>
                        <rect id="Rectangle-Copy-5" x="0" y="39" width="19" height="1"></rect>
                        <rect id="Rectangle-Copy-13" x="24" y="39" width="19" height="1"></rect>
                        <rect id="Rectangle-Copy-20" x="48" y="20" width="10" height="1"></rect>
                        <rect id="Rectangle-Copy" x="24" y="5" width="19" height="19"></rect>
                        <rect id="Rectangle-Copy-8" x="24" y="31" width="19" height="9"></rect>
                        <rect id="Rectangle-Copy-2" x="48" y="0" width="19" height="18"></rect>
                        <rect id="Rectangle-Copy-9" x="48" y="25" width="19" height="15"></rect>
                    </g>
                </g>
            </g>
        </g>
    </g>
</svg>