<?xml version="1.0" encoding="UTF-8"?>
<svg width="140px" height="70px" viewBox="0 0 140 70" version="1.1" xmlns="http://www.w3.org/2000/svg" xmlns:xlink="http://www.w3.org/1999/xlink">
    <!-- Generator: Sketch 56.3 (81716) - https://sketch.com -->
    <title>portfolio-grid</title>
    <desc>Created with Sketch.</desc>
    <g id="Dashboard-v.2" stroke="none" stroke-width="1" fill="none" fill-rule="evenodd">
        <g id="Portfolio" transform="translate(-430.000000, -357.000000)">
            <g id="Classic-Copy" transform="translate(430.000000, 357.000000)">
                <g id="portfolio-grid">
                    <rect id="Rectangle" stroke="#B0B8CA" stroke-width="2" x="1" y="1" width="138" height="68"></rect>
                    <g id="Group" transform="translate(37.000000, 6.000000)" fill="#B0B8CA">
                        <rect id="Rectangle" x="0" y="0" width="19" height="19"></rect>
                        <rect id="Rectangle-Copy-3" x="0" y="21" width="10" height="1"></rect>
                        <rect id="Rectangle" x="23" y="0" width="19" height="19"></rect>
                        <rect id="Rectangle-Copy-3" x="23" y="21" width="10" height="1"></rect>
                        <rect id="Rectangle" x="46" y="0" width="19" height="19"></rect>
                        <rect id="Rectangle-Copy-3" x="46" y="21" width="10" height="1"></rect>
                        <rect id="Rectangle" x="0" y="26" width="19" height="19"></rect>
                        <rect id="Rectangle-Copy-3" x="0" y="47" width="10" height="1"></rect>
                        <rect id="Rectangle" x="23" y="26" width="19" height="19"></rect>
                        <rect id="Rectangle-Copy-3" x="23" y="47" width="10" height="1"></rect>
                        <rect id="Rectangle" x="46" y="26" width="19" height="19"></rect>
                        <rect id="Rectangle-Copy-3" x="46" y="47" width="10" height="1"></rect>
                        <rect id="Rectangle" x="0" y="52" width="19" height="11"></rect>
                        <rect id="Rectangle" x="23" y="52" width="19" height="11"></rect>
                        <rect id="Rectangle" x="46" y="52" width="19" height="12"></rect>
                    </g>
                </g>
            </g>
        </g>
    </g>
</svg>