<svg version="1.1" id="Layer_1" xmlns="http://www.w3.org/2000/svg" xmlns:xlink="http://www.w3.org/1999/xlink" x="0" y="0" viewBox="0 0 59.2 20" width="59.2px" height="20px" xml:space="preserve">
  <style>
    .st1{fill:#fff}.st2{fill:#3c6ff4}
  </style>
  <defs>
    <path id="SVGID_1_" d="M0 0h59.2v20H0z"/>
  </defs>
  <clipPath id="SVGID_2_">
    <use xlink:href="#SVGID_1_" overflow="visible"/>
  </clipPath>
  <g clip-path="url(#SVGID_2_)">
    <path class="st1" d="M37.5 16.4c-.3.1-.8.2-1.2.2-1.8 0-2.5-.8-3.2-2L31.7 12h-2v4.6h-2.5V4h4.9c2.8 0 4.5 1.4 4.5 4 0 1.8-.9 2.9-2.3 3.5l1.2 2.2c.3.6.7.8 1.2.8.3 0 .5-.1.7-.1l.1 2zM29.8 10h2.4c1.3 0 2-.8 2-2s-.7-1.9-2-1.9h-2.4V10zM39.8 6.2c-.8 0-1.6-.6-1.6-1.5s.7-1.6 1.6-1.6c.9 0 1.6.7 1.6 1.6s-.8 1.5-1.6 1.5zm-1.3 1.4H41v8.9h-2.5V7.6zM46 16.6c-2.5 0-3.8-1-3.8-2.8h2.1c.1.7.5 1.1 1.6 1.1s1.5-.3 1.5-.8c0-1.7-5-.3-5-3.9 0-1.6 1.5-2.6 3.8-2.6 2.2 0 3.5 1.1 3.5 2.8h-2.2c-.1-.7-.5-1.1-1.4-1.1-.9 0-1.4.3-1.4.8 0 1.6 5 .2 5 3.9.1 1.6-1.3 2.6-3.7 2.6zM59.2 12.6H53c.2 1.4 1 2.1 2.1 2.1 1.2 0 1.6-.6 1.8-1.1h2.3c-.3 1.5-1.5 3-4.2 3s-4.4-1.8-4.4-4.5 1.8-4.5 4.5-4.5 4.2 1.8 4.2 4.6c-.1 0-.1.4-.1.4zm-6.1-1.4h3.8c-.2-1.3-.8-1.8-1.8-1.8s-1.8.5-2 1.8z"/>
    <path class="st2" d="M16.5 5.7c1.5 0 2.8-1.3 2.8-2.8 0-1.6-1.2-2.8-2.8-2.8-1.5 0-2.8 1.3-2.8 2.8 0 1.6 1.2 2.8 2.8 2.8zM16.5 19.9c1.6 0 2.9-1.3 2.9-3 0-1.6-1.3-3-2.9-3-1.6 0-2.9 1.3-2.9 3-.1 1.7 1.2 3 2.9 3zM2.8 20c1.5 0 2.8-1.3 2.8-2.8 0-1.6-1.2-2.8-2.8-2.8-1.5 0-2.8 1.3-2.8 2.8S1.2 20 2.8 20z"/>
    <linearGradient id="SVGID_3_" gradientUnits="userSpaceOnUse" x1="16.195" y1="832.579" x2="3.236" y2="819.777" gradientTransform="translate(0 -816)">
      <stop offset="0" stop-color="#3c6ff4"/>
      <stop offset="1" stop-color="#fff"/>
    </linearGradient>
    <path d="m.9 5.5 13.5 13.6 4.2-4.2L5.2 1.3.9 5.5z" fill="url(#SVGID_3_)"/>
    <path class="st2" d="M2.8 5.7c1.5 0 2.8-1.3 2.8-2.8C5.6 1.3 4.4 0 2.8 0 1.2 0 0 1.3 0 2.8c0 1.7 1.2 2.9 2.8 2.9z"/>
    <path class="st2" d="M2.8 5.7h13.7V0H2.8v5.7z"/>
    <path class="st2" d="M0 17.2h5.6V2.8H0v14.4z"/>
  </g>
</svg>
